HIERARCHY
ROOT hip
{
	OFFSET 0.000000 0.000000 0.000000 
	CHANNELS 6 Xposition Yposition Zposition Xrotation Zrotation Yrotation
	JOINT abdomen
	{
		OFFSET 0.000000 3.402643 0.000000 
		CHANNELS 3 Xrotation Zrotation Yrotation
		JOINT chest
		{
			OFFSET 0.000000 8.438565 -0.680529 
			CHANNELS 3 Xrotation Zrotation Yrotation
			JOINT neck
			{
				OFFSET 0.000000 10.207942 -0.272212 
				CHANNELS 3 Xrotation Zrotation Yrotation
				JOINT head
				{
					OFFSET 0.000000 3.130431 0.000000 
					CHANNELS 3 Xrotation Zrotation Yrotation
					End Site
					{
						OFFSET 0.000000 3.130435 0.000000 
					}
				}
			}
			JOINT lCollar
			{
				OFFSET 3.470700 6.669187 -0.816635 
				CHANNELS 3 Zrotation Yrotation Xrotation
				JOINT lShldr
				{
					OFFSET 3.198488 0.000000 0.000000 
					CHANNELS 3 Zrotation Yrotation Xrotation
					JOINT lForeArm
					{
						OFFSET 10.139888 0.000000 0.000000 
						CHANNELS 3 Yrotation Zrotation Xrotation
						JOINT lHand
						{
							OFFSET 8.370511 0.000000 0.000000 
							CHANNELS 3 Zrotation Yrotation Xrotation
							End Site
							{
								OFFSET 4.083176 0.000000 0.000000 
							}
						}
					}
				}
			}
			JOINT rCollar
			{
				OFFSET -3.470700 6.669187 -0.816635 
				CHANNELS 3 Zrotation Yrotation Xrotation
				JOINT rShldr
				{
					OFFSET -3.198488 0.000000 0.000000 
					CHANNELS 3 Zrotation Yrotation Xrotation
					JOINT rForeArm
					{
						OFFSET -10.139888 0.000000 0.000000 
						CHANNELS 3 Yrotation Zrotation Xrotation
						JOINT rHand
						{
							OFFSET -8.370511 0.000000 0.000000 
							CHANNELS 3 Zrotation Yrotation Xrotation
							End Site
							{
								OFFSET -4.083176 0.000000 0.000000 
							}
						}
					}
				}
			}
		}
	}
	JOINT lThigh
	{
		OFFSET 5.308129 -1.633274 1.361059 
		CHANNELS 3 Xrotation Zrotation Yrotation
		JOINT lShin
		{
			OFFSET -2.041588 -20.007561 0.000000 
			CHANNELS 3 Xrotation Zrotation Yrotation
			JOINT lFoot
			{
				OFFSET 0.000000 -19.190928 -1.224953 
				CHANNELS 3 Xrotation Yrotation Zrotation
				End Site
				{
					OFFSET 0.000000 -2.449906 4.627600 
				}
			}
		}
	}
	JOINT rThigh
	{
		OFFSET -5.308129 -1.633274 1.361059 
		CHANNELS 3 Xrotation Zrotation Yrotation
		JOINT rShin
		{
			OFFSET 2.041588 -20.007561 0.000000 
			CHANNELS 3 Xrotation Zrotation Yrotation
			JOINT rFoot
			{
				OFFSET 0.000000 -19.190928 -1.224953 
				CHANNELS 3 Xrotation Yrotation Zrotation
				End Site
				{
					OFFSET 0.000000 -2.449906 4.627600 
				}
			}
		}
	}
}
MOTION
Frames: 9
Frame Time: 0.016667
-0.046069 36.297573 -17.376411 -15.532743 -4.703806 -9.956190 63.473602 3.237478 8.720709 -0.037628 1.552206 2.139446 -27.177298 -7.695786 3.094866 -15.514850 -0.049066 -33.134789 -12.491195 -1.699079 -0.276854 -43.394188 -19.089664 2.802559 -41.584393 5.000000 -16.725634 -20.401258 -15.085347 16.356991 7.683690 -0.294903 -0.465268 37.280178 38.745365 11.670522 49.876263 -5.000000 -10.730219 12.139514 -9.231565 3.148766 -56.932953 25.260395 -9.002110 85.679672 -0.169760 -5.127857 0.322456 8.349621 -4.322704 -57.351376 -4.726891 -2.305886 91.497696 -0.322380 4.910948 -3.531644 -2.280118 -0.819276 
-0.152112 36.998924 -17.794113 -18.784336 -4.182928 -10.781381 61.921486 3.557216 8.099730 -0.114966 1.561954 2.207800 -26.141178 -7.425649 2.862772 -13.587103 0.166084 -35.918133 -12.068840 -1.171835 -0.380110 -41.182308 -18.571596 1.956042 -41.416298 5.000000 -18.387636 -20.434912 -14.246455 16.678757 7.196331 -0.669251 -0.479835 34.947624 40.057583 10.483491 50.036888 -5.000000 -10.908555 11.703628 -9.427712 3.764403 -51.346737 25.419472 -6.963168 82.310028 -0.477479 -5.019460 2.724336 8.228134 -4.566530 -53.306927 -5.566125 -2.458452 88.800446 -0.116863 5.343117 -1.655460 -1.293821 -1.467798 
-0.258189 37.700390 -18.211805 -22.038403 -3.711281 -11.646321 60.368824 3.852511 7.481021 -0.202330 1.571710 2.266391 -25.116930 -7.155325 2.630730 -11.673752 0.480136 -38.702755 -11.647684 -0.643037 -0.475380 -38.983353 -18.029093 1.125377 -41.198753 5.000000 -20.055929 -20.447556 -13.411016 16.996349 6.718352 -1.033563 -0.494842 32.516777 41.350182 9.188515 50.186768 -5.000000 -11.085435 11.263874 -9.625490 4.380586 -45.729065 25.379358 -4.955931 78.909668 -0.779716 -4.904540 5.115845 8.109021 -4.812002 -49.241829 -6.415534 -2.645369 86.112915 0.117135 5.792436 0.119255 -0.267137 -2.115916 
-0.505278 38.747417 -18.650049 -25.678802 -3.395463 -12.415014 58.385624 4.018694 6.741028 -0.133861 1.649858 2.139475 -23.174255 -6.540655 2.197236 -8.943759 1.145672 -42.060951 -10.876698 -0.320348 -0.504956 -36.681190 -17.004906 0.075114 -41.575058 5.000000 -20.871780 -21.321045 -12.663651 18.289598 6.182283 -1.183206 -0.467695 30.952890 42.526596 8.343559 50.219517 -5.000000 -11.284802 10.546035 -9.540458 5.581571 -39.058205 25.554193 -2.584908 74.050743 -1.198415 -4.836329 9.347142 7.166149 -5.678018 -43.895401 -7.441436 -2.916192 82.123909 0.568016 6.166764 2.834664 1.117302 -2.184288 
-0.787672 39.880920 -19.093418 -29.407362 -3.156902 -13.184599 56.302780 4.124811 5.941811 -0.036934 1.737793 1.963747 -21.002905 -5.828916 1.748254 -6.054921 2.053417 -45.525734 -9.998835 -0.053221 -0.510204 -34.389854 -15.827985 -0.986701 -42.100754 5.000000 -21.446331 -22.376732 -11.899739 19.795282 5.636056 -1.283815 -0.439763 29.564314 43.661987 7.569622 50.212074 -5.000000 -11.493284 9.788028 -9.360450 6.917121 -32.072762 25.531580 -0.090571 68.816788 -1.636998 -4.749948 13.934871 6.019469 -6.583346 -38.198273 -8.495223 -3.302099 77.823647 1.074626 6.457843 5.799102 2.649072 -2.117944 
-1.128428 41.132660 -19.580759 -33.128407 -3.147594 -13.888746 54.070419 4.210761 5.236836 0.116515 1.845304 1.699858 -18.526096 -4.941434 1.284866 -3.072246 3.173337 -49.036324 -8.877314 -0.045253 -0.462846 -32.378891 -14.366676 -1.984752 -42.874931 5.000000 -21.663305 -23.336872 -11.515370 21.171881 4.952780 -1.218784 -0.394761 28.915485 44.517292 7.139517 50.199364 -5.000000 -11.719928 9.012069 -8.990602 8.548590 -24.980158 25.614882 2.550871 63.032810 -2.104921 -4.557250 18.881807 4.391706 -7.596443 -32.087906 -9.384439 -3.830805 72.745224 1.709324 6.564296 9.553894 3.931628 -1.728358 
-1.556733 42.561722 -20.134060 -36.795998 -3.451811 -14.460933 51.626347 4.315053 4.687815 0.325737 2.001685 1.319152 -15.572782 -3.806278 0.823802 0.040234 4.559814 -52.599155 -7.385323 -0.402143 -0.339099 -30.796637 -12.530324 -2.932865 -44.083893 5.000000 -21.308865 -24.223988 -11.727656 22.398109 4.074968 -0.919748 -0.310042 29.425268 44.952404 7.295732 50.150211 -5.000000 -11.980467 8.257892 -8.351149 10.621723 -17.643705 25.912895 5.552931 56.471596 -2.580863 -4.213536 24.437399 2.060690 -8.661448 -25.327761 -10.076229 -4.537475 66.512375 2.460814 6.417165 14.589325 5.000494 -0.783296 
-1.985062 43.990822 -20.687380 -40.467472 -3.791988 -15.024459 49.181416 4.394533 4.123874 0.542856 2.148289 0.928359 -12.637094 -2.642725 0.419885 3.072554 6.134950 -56.100124 -5.893492 -0.772967 -0.233311 -29.248995 -10.664160 -3.826385 -45.290390 5.000000 -20.944748 -25.124634 -11.910289 23.629492 3.187374 -0.620036 -0.234519 29.944544 45.377605 7.464685 50.098045 -5.000000 -12.247294 7.550853 -7.660367 12.688132 -10.310249 25.841286 8.558537 49.892143 -2.991656 -3.790263 29.971226 -0.324133 -9.448482 -18.543854 -10.663508 -5.315609 60.257206 3.193250 6.159352 19.592394 6.135661 0.004240 
-2.458092 45.442711 -21.440361 -43.676834 -4.403829 -15.094828 46.772190 4.710866 3.719031 0.732399 2.285136 0.263867 -10.119335 -1.412656 0.193964 5.234661 7.385288 -59.134720 -3.894697 -1.536445 -0.114348 -28.738659 -8.731203 -4.295126 -46.360378 5.000000 -20.426065 -24.925762 -12.196566 23.653475 1.851250 -0.164247 -0.135537 32.183956 44.839756 8.328842 50.623478 -5.000000 -12.589365 7.041726 -7.178875 14.894273 -4.111968 26.292095 11.808767 43.710323 -3.471777 -3.528765 33.484035 -2.599495 -9.946398 -11.501323 -10.670844 -6.735427 52.259716 3.573923 5.153873 25.323153 5.792382 1.623877 
